<svg width="104" height="21" viewBox="0 0 104 21" fill="none" xmlns="http://www.w3.org/2000/svg">
<mask id="mask0_643_1224" style="mask-type:alpha" maskUnits="userSpaceOnUse" x="0" y="0" width="104" height="21">
<g clip-path="url(#clip0_643_1224)">
<path d="M28.5781 15.363V4.94086H31.4069V9.01139H35.1514V4.94086H37.9802V15.363H35.1514V11.2925H31.4069V15.363H28.5781ZM43.1295 15.5055C42.3724 15.5269 41.6225 15.3523 40.9526 14.9988C40.3611 14.6737 39.8781 14.1819 39.5639 13.5845C39.2306 12.9323 39.0644 12.2076 39.0805 11.4755C39.0644 10.7433 39.2306 10.0186 39.5639 9.36645C39.8778 8.76839 40.3609 8.2759 40.9526 7.95028C41.6225 7.59629 42.3722 7.4213 43.1295 7.44225C43.887 7.42059 44.6371 7.59496 45.3074 7.94846C45.8989 8.2736 46.3819 8.76542 46.6961 9.36282C47.0294 10.015 47.1956 10.7396 47.1795 11.4718C47.1956 12.204 47.0294 12.9287 46.6961 13.5808C46.3823 14.1796 45.8994 14.6727 45.3074 14.9988C44.637 15.3519 43.8868 15.5257 43.1295 15.5037V15.5055ZM43.1501 13.4297C43.3784 13.4332 43.5993 13.3474 43.7655 13.1907C43.9564 13.0017 44.0949 12.7665 44.1674 12.5079C44.269 12.1662 44.317 11.8109 44.3099 11.4545C44.3174 11.0974 44.2694 10.7413 44.1674 10.3989C44.0942 10.1416 43.9557 9.90765 43.7655 9.71971C43.5993 9.56298 43.3784 9.47724 43.1501 9.48071C42.9122 9.47588 42.6815 9.56127 42.5041 9.71971C42.3083 9.90503 42.1659 10.1396 42.0922 10.3989C41.9902 10.7413 41.9422 11.0974 41.9496 11.4545C41.9425 11.8109 41.9905 12.1662 42.0922 12.5079C42.1655 12.7685 42.3077 13.0044 42.5041 13.1907C42.6818 13.3483 42.9125 13.4329 43.1501 13.4274V13.4297ZM48.3191 15.363V7.54606H51.0462V9.03188H51.1277C51.2205 8.56807 51.4584 8.14578 51.8069 7.82601C52.1138 7.57265 52.5014 7.43736 52.8994 7.44454C53.0213 7.44443 53.1431 7.4537 53.2636 7.4723C53.3815 7.49034 53.4981 7.51666 53.6122 7.55105V9.94594C53.4452 9.89246 53.2728 9.8566 53.0983 9.83896C52.9245 9.81722 52.7495 9.80536 52.5744 9.80346C52.3148 9.79983 52.0589 9.86466 51.8323 9.99146C51.6155 10.1133 51.4368 10.293 51.3162 10.5104C51.1863 10.7499 51.1212 11.0192 51.1277 11.2916V15.363H48.3191ZM54.5263 15.363V7.54606H57.335V15.363H54.5263ZM55.9375 6.73394C55.5736 6.74137 55.2212 6.60627 54.9556 6.35748C54.8265 6.24468 54.7234 6.10535 54.6532 5.94901C54.5829 5.79267 54.5473 5.62299 54.5486 5.4516C54.5473 5.28021 54.5829 5.11054 54.6532 4.9542C54.7234 4.79786 54.8265 4.65853 54.9556 4.54573C55.2196 4.29757 55.5702 4.16247 55.9325 4.16927C56.2957 4.16145 56.6476 4.29665 56.9121 4.54573C57.0405 4.65887 57.1432 4.79831 57.2131 4.95462C57.2828 5.11093 57.3183 5.28042 57.3168 5.4516C57.3183 5.62278 57.2828 5.79228 57.2131 5.94859C57.1432 6.10489 57.0405 6.24434 56.9121 6.35748C56.6484 6.60554 56.2977 6.73993 55.9357 6.73167L55.9375 6.73394ZM58.8426 15.363V13.8153L62.2619 9.72472V9.68419H58.9633V7.54742H65.5776V9.25675L62.4639 13.1848V13.2253H65.7V15.363H58.8426ZM70.7894 15.5055C70.0312 15.5273 69.2804 15.3528 68.6097 14.9988C68.017 14.6736 67.5333 14.181 67.2187 13.5827C66.8853 12.9305 66.7192 12.2058 66.7351 11.4736C66.7192 10.7416 66.8855 10.0171 67.2187 9.36509C67.533 8.76771 68.0159 8.27587 68.6075 7.95073C69.2782 7.59607 70.0291 7.4209 70.7876 7.44225C71.5449 7.42059 72.2951 7.59496 72.9653 7.94846C73.5568 8.2736 74.0398 8.76542 74.3542 9.36282C74.6874 10.015 74.8535 10.7396 74.8376 11.4718C74.8535 12.204 74.6874 12.9287 74.3542 13.5808C74.0404 14.1796 73.5573 14.6727 72.9653 14.9988C72.2949 15.3519 71.5447 15.5257 70.7876 15.5037L70.7894 15.5055ZM70.8098 13.4297C71.0383 13.4332 71.259 13.3474 71.4252 13.1907C71.6161 13.0017 71.7546 12.7665 71.8272 12.5079C71.9287 12.1662 71.9769 11.8109 71.9698 11.4545C71.9772 11.0974 71.929 10.7413 71.8272 10.3989C71.7541 10.1416 71.6156 9.90765 71.4252 9.71971C71.259 9.56298 71.0383 9.47724 70.8098 9.48071C70.5721 9.47588 70.3413 9.56127 70.1639 9.71971C69.968 9.90503 69.8258 10.1396 69.7518 10.3989C69.65 10.7413 69.602 11.0974 69.6095 11.4545C69.6023 11.8109 69.6503 12.1662 69.7518 12.5079C69.8251 12.7685 69.9675 13.0044 70.1639 13.1907C70.3411 13.3479 70.5711 13.4324 70.808 13.4274L70.8098 13.4297ZM78.7879 10.967V15.363H75.9792V7.54606H78.6445V9.03188H78.726C78.8836 8.55225 79.2004 8.141 79.6242 7.86652C80.0719 7.5797 80.5947 7.43265 81.1263 7.44409C81.6334 7.43175 82.1335 7.56321 82.5689 7.82327C82.9767 8.07492 83.3061 8.43529 83.5203 8.86389C83.7524 9.33319 83.8667 9.85187 83.8536 10.3752V15.363H81.0449V10.967C81.0671 10.6373 80.9623 10.3115 80.7522 10.0566C80.6468 9.94448 80.5182 9.85678 80.3755 9.79962C80.2326 9.74246 80.0791 9.71719 79.9255 9.72563C79.7148 9.72068 79.5066 9.77257 79.3227 9.87584C79.1516 9.97578 79.0144 10.1247 78.9287 10.3033C78.832 10.5104 78.7832 10.7366 78.7856 10.9652L78.7879 10.967ZM89.5765 15.5055C88.9894 15.5087 88.406 15.4114 87.8517 15.2178C87.3089 15.0257 86.8161 14.7146 86.4091 14.3074C85.9628 13.8491 85.6255 13.2961 85.4222 12.6895C85.165 11.9104 85.0419 11.0932 85.0581 10.2728C85.0505 9.49312 85.1611 8.71681 85.3863 7.97031C85.5769 7.33657 85.8897 6.74628 86.3071 6.23276C86.6947 5.76283 87.1846 5.38773 87.7393 5.13615C88.3239 4.87748 88.9573 4.74814 89.5966 4.75695C90.2973 4.74222 90.9915 4.89485 91.6213 5.20215C92.1792 5.47702 92.6594 5.88721 93.0179 6.39526C93.3625 6.88534 93.5723 7.45738 93.6262 8.05406H90.8379C90.8168 7.91504 90.7663 7.78215 90.6894 7.66435C90.6127 7.54656 90.5115 7.44662 90.3928 7.37124C90.1521 7.22823 89.8765 7.1551 89.5966 7.16003C89.3267 7.14777 89.0592 7.215 88.8271 7.35337C88.5952 7.49175 88.4089 7.69518 88.2915 7.93844C87.9871 8.58508 87.8416 9.295 87.8668 10.0092H87.9277C88.0589 9.69172 88.2649 9.41061 88.5282 9.18984C88.8046 8.95783 89.1222 8.78007 89.4646 8.66587C89.8283 8.54294 90.21 8.4814 90.5939 8.4838C91.1747 8.47073 91.748 8.61867 92.25 8.91124C92.7195 9.19222 93.1024 9.59718 93.3567 10.0816C93.6281 10.606 93.763 11.1905 93.7486 11.7809C93.7669 12.4707 93.5838 13.1509 93.2219 13.7383C92.8629 14.3021 92.3524 14.7534 91.7488 15.0407C91.0688 15.3612 90.3239 15.5196 89.5724 15.5037L89.5765 15.5055ZM89.556 13.3687C89.8192 13.3735 90.0787 13.3066 90.3067 13.1752C90.523 13.049 90.7006 12.8661 90.8206 12.6463C90.9474 12.4123 91.0103 12.1489 91.0027 11.8829C91.0108 11.616 90.948 11.3518 90.8206 11.1172C90.7001 10.8984 90.5225 10.7164 90.3067 10.5905C90.0787 10.4591 89.8192 10.3922 89.556 10.3971C89.36 10.395 89.1654 10.4321 88.9838 10.5063C88.8122 10.5772 88.6573 10.6829 88.5286 10.8168C88.398 10.9533 88.2952 11.114 88.226 11.2897C88.1517 11.4783 88.1129 11.6789 88.1116 11.8815C88.1103 12.1483 88.177 12.411 88.3051 12.6449C88.4261 12.864 88.6035 13.0466 88.819 13.1739C89.0413 13.3034 89.2946 13.37 89.552 13.3664L89.556 13.3687ZM99.203 15.5055C98.4708 15.5195 97.7443 15.3746 97.0734 15.0808C96.4909 14.827 95.9866 14.4222 95.6131 13.9081C95.2574 13.4055 95.068 12.8041 95.0714 12.1883H97.8191C97.8184 12.3542 97.856 12.5181 97.9288 12.6672C98.0015 12.8163 98.1077 12.9467 98.2387 13.0482C98.5136 13.2629 98.8543 13.3756 99.203 13.3669C99.4692 13.3724 99.7324 13.3084 99.9664 13.1812C100.186 13.0584 100.366 12.8757 100.485 12.6545C100.614 12.4103 100.677 12.1366 100.667 11.8606C100.678 11.5838 100.615 11.3092 100.485 11.0644C100.365 10.8443 100.185 10.6627 99.9664 10.5405C99.731 10.4128 99.4661 10.3491 99.1984 10.3556C98.9086 10.3533 98.6234 10.428 98.3717 10.5719C98.1275 10.7072 97.9324 10.9164 97.8145 11.1696L95.3318 10.6811L95.7388 4.94176H102.74V7.20099H98.0591L97.8546 9.49983H97.9155C98.108 9.15603 98.4033 8.88111 98.7601 8.71368C99.1924 8.49768 99.6711 8.39034 100.154 8.40095C100.737 8.39097 101.312 8.54052 101.815 8.8334C102.301 9.12011 102.7 9.53226 102.97 10.0265C103.261 10.564 103.406 11.1683 103.39 11.7791C103.406 12.4589 103.227 13.129 102.874 13.7101C102.519 14.2777 102.013 14.7344 101.411 15.028C100.721 15.3589 99.9632 15.5219 99.1984 15.5037L99.203 15.5055Z" fill="#0161BF"/>
<path d="M0.908771 12.05L1.32574 11.8819L1.74953 11.7266L2.17649 11.584L2.60982 11.4581L3.04632 11.345L2.90097 11.1411L2.76879 10.9312L2.64569 10.711L2.53896 10.4879L2.44403 10.2554L2.36862 10.0192L2.30413 9.77662L2.2519 9.53407L2.2151 9.28923L2.19603 9.03988L2.1892 8.79052L2.19921 8.53842L2.22509 8.29269L2.26279 8.04695L2.31775 7.80122L2.38544 7.56231L2.46628 7.32612L2.56395 7.09538L2.67704 6.87235L2.80014 6.65569L2.9364 6.44857L3.08493 6.2478L3.24662 6.05703L3.41832 5.87534L3.60001 5.70364L3.79441 5.54513L3.99473 5.39978L4.20502 5.26352L4.42169 5.14042L4.64471 5.03368L4.87772 4.93966L5.11391 4.85881L5.35328 4.79068L5.59585 4.7389L5.84521 4.70347L6.09048 4.68075L6.33985 4.67439L6.58876 4.68075L6.83813 4.70347L7.08386 4.74116L7.32913 4.79293L7.56851 4.86062L7.80471 4.94148L8.03454 5.03868L8.25756 5.14859L8.47421 5.26806L8.68407 5.40432L8.88483 5.55512L9.07924 5.71365L9.26091 5.88535L9.43261 6.06702L9.59114 6.2578L9.73967 6.45856L9.87593 6.66886L9.99903 6.88552L10.1089 7.11263L10.203 7.34247L10.287 7.57866L10.3547 7.81759L10.4065 8.06059L10.4442 8.30631L10.4669 8.55524L10.4769 8.80459L10.4705 9.0535L10.4478 9.30287L10.4124 9.5486L10.3601 9.79432L10.2956 10.0337L10.217 10.2694L10.123 10.5025L10.0167 10.7255L10.8316 10.8804L11.6492 11.0471L12.4609 11.2219L13.2698 11.4104L13.7481 11.5204L14.2264 11.6171L14.7102 11.7016L15.193 11.7715L15.6813 11.8329L16.1664 11.8815L16.5348 11.9069L16.9005 11.9201H17.2665L17.6322 11.9101L18.0006 11.8874L18.3661 11.8551L18.7295 11.8065L19.0175 11.7611L19.2987 11.703L19.5799 11.6353L19.8583 11.5576L20.1363 11.4699L20.1739 11.0848L20.1966 10.6996L20.2067 10.3149L20.2026 9.92834L20.183 9.53997L20.1454 9.15843L20.0936 8.77325L20.0291 8.39625L19.9451 8.01925L19.851 7.64725L19.7378 7.27843L19.6102 6.91187L19.4712 6.55304L19.3164 6.20058L19.1484 5.85082L18.9666 5.51151L18.7696 5.17767L18.5623 4.85427L18.3426 4.53631L18.1096 4.2288L17.8642 3.93266L17.6072 3.64467L17.3346 3.36716L17.0566 3.10326L16.7686 2.84798L16.4671 2.60498L16.1596 2.37197L15.8416 2.15212L15.5146 1.94864L15.1816 1.75424L14.8387 1.57254L14.494 1.40539L14.1379 1.25459L13.779 1.1156L13.4156 0.990694L13.0468 0.880772L12.6698 0.787205L12.2946 0.706351L11.9131 0.641852L11.5347 0.593704L11.1496 0.558273L10.7648 0.541924L10.3765 0.541016L9.9913 0.55101L9.60658 0.576447L9.22141 0.61869L8.83986 0.676826L8.46286 0.752225L8.08813 0.839436L7.71613 0.939822L7.34685 1.05564L6.98348 1.18828L6.62646 1.33317L6.27398 1.49169L5.93106 1.66612L5.59494 1.85462L5.26516 2.05174L4.94222 2.26523L4.63154 2.49234L4.32948 2.73216L4.03516 2.98107L3.7508 3.24316L3.47829 3.51569L3.21438 3.79685L2.96228 4.09117L2.72337 4.39278L2.49626 4.70665L2.28277 5.0246L2.07929 5.35436L1.89079 5.69048L1.71637 6.03342L1.55467 6.38316L1.40932 6.74199L1.27714 7.10537L1.15723 7.46874L1.05412 7.84074L0.966458 8.21592L0.891058 8.59294L0.829738 8.97448L0.787496 9.35965L0.758427 9.74483L0.74707 10.1305V10.5152L0.766601 10.9004L0.798851 11.286L0.847453 11.6712L0.908771 12.05Z" fill="#0161BF"/>
<path d="M19.8253 12.9755L19.58 13.1081L19.3306 13.2276L19.0786 13.3348L18.8165 13.4315L18.5535 13.5124L18.2851 13.5837L18.0157 13.6387L17.7409 13.6841L17.3638 13.7263L16.9823 13.7581L16.6008 13.7776L16.2192 13.7876L15.8377 13.7808L15.4562 13.7618L15.0751 13.7327L14.6981 13.6873L14.2974 13.6328L13.8964 13.5614L13.4985 13.4806L13.1042 13.387L12.7127 13.2835L12.3202 13.1672L11.7243 12.9855L11.1338 12.8111L10.5356 12.643L10.0078 12.5067L9.47728 12.3773L8.94721 12.2605L8.41396 12.1556L8.06104 12.0929L7.70584 12.0425L7.35018 12.0007L6.99407 11.9685L6.63525 11.949L6.12107 11.9326H5.60372L5.08955 11.9422L4.5722 11.968L4.05801 12.0058L3.54384 12.0607L3.03285 12.1252L2.52185 12.206L2.01404 12.2996L1.5094 12.4064L1.00977 12.5263L1.01613 12.5585L1.52712 12.4777L2.04129 12.4064L2.55456 12.3496L3.06828 12.301L3.58608 12.2687L4.10345 12.246L4.6208 12.236L5.1386 12.2392L5.65595 12.2556L6.0275 12.2783L6.4027 12.3142L6.7747 12.3623L7.14625 12.4236L7.51507 12.499L7.87845 12.5862L8.25045 12.6898L8.62245 12.8065L8.98583 12.9323L9.3492 13.075L9.70484 13.2258L10.0546 13.3906L10.3485 13.5269L10.6396 13.6754L10.9222 13.8344L11.1974 14.0043L11.4699 14.1824L11.7338 14.3709L11.9941 14.5698L12.243 14.7769L12.4501 14.9777L12.6441 15.1912L12.8285 15.4142L12.9997 15.6472L13.1583 15.8861L13.3036 16.1355L13.4358 16.3911L13.5557 16.6552L13.6625 16.9235L13.7301 17.1984L13.7851 17.4763L13.8228 17.758L13.8487 18.0391L13.8614 18.3207L13.855 18.605L13.8387 18.8867L13.8064 19.1679L13.7578 19.4463L14.1167 19.3101L14.4691 19.1593L14.8153 18.9944L15.1514 18.8163L15.4843 18.6254L15.8077 18.4221L16.1257 18.2054L16.4332 17.976L16.7308 17.7329L17.0186 17.4809L17.2967 17.217L17.5651 16.9422L17.8231 16.6547L18.066 16.3608L18.3023 16.0565L18.5222 15.7426L18.7293 15.4246L18.9264 15.0949L19.1108 14.7583L19.2788 14.4126L19.4342 14.0629L19.5764 13.7068L19.7026 13.3434L19.8253 12.9755Z" fill="#1A365F"/>
<path d="M8.91865 14.515L8.69881 14.3174L8.46897 14.1357L8.23278 13.9635L7.98386 13.805L7.72815 13.662L7.46424 13.5325L7.1958 13.4126L6.92099 13.309L6.63984 13.2214L6.32642 13.1192L6.00847 13.0283L5.68507 12.9529L5.35849 12.8916L5.03191 12.8398L4.70215 12.8021L4.25292 12.7644L3.80325 12.7417L3.34903 12.7354L2.89935 12.7385L2.44514 12.7544L1.99546 12.7867L1.5476 12.8321L1.10156 12.8902L1.21148 13.2591L1.33776 13.6224L1.47629 13.9813L1.62709 14.3337L1.79515 14.6835L1.97684 15.0228L2.17125 15.3562L2.37791 15.6796L2.59821 15.9975L2.83213 16.3028L3.07513 16.6002L3.33041 16.8877L3.59885 17.1631L3.87593 17.4355L4.16344 17.6909L4.46095 17.9334L4.76846 18.1659L5.08641 18.3863L5.40936 18.5934L5.74275 18.7873L6.08206 18.9691L6.42953 19.1326L6.782 19.2879L7.14084 19.4269L7.50421 19.55L7.87168 19.6604L8.08833 19.4173L8.29546 19.1684L8.49258 18.9096L8.68108 18.6456L8.83643 18.4095L8.98178 18.1701L9.12395 17.9243L9.2534 17.675L9.34107 17.4905L9.41873 17.2998L9.48324 17.1026L9.53547 16.9056L9.57726 16.7048L9.60314 16.5008L9.6195 16.2937L9.62268 16.0902L9.61315 15.8831L9.58362 15.7114L9.5382 15.5465L9.48324 15.3812L9.41555 15.2195L9.33789 15.0687L9.24705 14.9197L9.14667 14.7775L9.03674 14.6412L8.91865 14.515Z" fill="#1A365F"/>
</g>
</mask>
<g mask="url(#mask0_643_1224)">
<rect x="-33.1885" y="-55.5479" width="163.456" height="124.847" fill="#212E3D"/>
</g>
<defs>
<clipPath id="clip0_643_1224">
<rect width="102.974" height="20.2704" fill="white" transform="translate(0.422852 0.10498)"/>
</clipPath>
</defs>
</svg>
